Coordinates
version=1
nRows=12
nColumns=24
inDegrees=yes

Units are S.I. units (second, meters, Newtons, ...)
Angles are in degrees.

endheader
time	pelvis_tilt	pelvis_list	pelvis_rotation	pelvis_tx	pelvis_ty	pelvis_tz	hip_flexion_r	hip_adduction_r	hip_rotation_r	knee_angle_r	ankle_angle_r	subtalar_angle_r	mtp_angle_r	hip_flexion_l	hip_adduction_l	hip_rotation_l	knee_angle_l	ankle_angle_l	subtalar_angle_l	mtp_angle_l	lumbar_extension	lumbar_bending	lumbar_rotation
      0.73400000	      2.06091870	      2.19026074	      3.63619323	     -0.43766276	      1.08837941	      0.33699991	      6.42664987	      0.79543447	     -3.73623061	    -15.45049905	      7.43574938	     -4.25840190	      6.47207970	     11.10613618	     -2.44433882	     -4.84955536	    -68.05284025	      2.66025843	      0.05705661	      5.26660762	    -12.56933148	      3.54936340	     -0.83081349
      0.73816667	      2.07853494	      2.34700450	      3.52932605	     -0.43241981	      1.08935980	      0.33760830	      5.92301664	      0.67539702	     -3.70755917	    -15.08738611	      7.49937365	     -4.11992520	      6.46489878	     11.56477542	     -2.29887849	     -5.07078034	    -67.79956070	      2.99203434	      0.25437769	      5.23919292	    -12.60903771	      3.29244931	     -0.67645307
      0.74233333	      2.13107289	      2.49882437	      3.41101122	     -0.42719618	      1.09036082	      0.33821022	      5.37877121	      0.56131716	     -3.67142879	    -14.71166656	      7.58118725	     -3.96570289	      6.45490476	     11.97093497	     -2.16095244	     -5.30443311	    -67.48840940	      3.32465648	      0.48413602	      5.20088708	    -12.68660173	      3.06766585	     -0.44167709
      0.74650000	      2.15955546	      2.63999548	      3.28493183	     -0.42198863	      1.09126533	      0.33883174	      4.87019166	      0.45712544	     -3.63064939	    -14.34931985	      7.64151828	     -3.83578177	      6.44794325	     12.39790967	     -2.04146624	     -5.56048575	    -67.14018682	      3.64996555	      0.72219392	      5.18009394	    -12.74316856	      2.81685701	     -0.28991632
      0.75066667	      2.17815761	      2.78370766	      3.14870803	     -0.41679507	      1.09211823	      0.33942935	      4.37543427	      0.34551478	     -3.57541856	    -13.98729489	      7.67340832	     -3.70560892	      6.44388904	     12.82221848	     -1.91195967	     -5.82211570	    -66.73931233	      3.97778634	      0.94124341	      5.17221900	    -12.78429607	      2.60106255	     -0.16595087
      0.75483333	      2.25649923	      2.90227777	      3.00878113	     -0.41164131	      1.09299456	      0.34004388	      3.81225705	      0.26632160	     -3.51702912	    -13.60939893	      7.76695317	     -3.57227973	      6.43587596	     13.17549818	     -1.82366299	     -6.09308704	    -66.29872827	      4.30221169	      1.23802071	      5.15337843	    -12.90590923	      2.39075740	      0.10622498
      0.75900000	      2.29665338	      3.02526602	      2.86242405	     -0.40646794	      1.09376716	      0.34064646	      3.29975102	      0.17559028	     -3.46090257	    -13.25167052	      7.82493361	     -3.45754254	      6.42952219	     13.55757105	     -1.72969222	     -6.38402761	    -65.81285336	      4.61063477	      1.48867118	      5.14283327	    -12.96523712	      2.17906197	      0.27582970
      0.76316667	      2.33305727	      3.14382541	      2.71044324	     -0.40132743	      1.09447765	      0.34124191	      2.79487872	      0.08753007	     -3.39191262	    -12.89367766	      7.88742153	     -3.33862731	      6.42385323	     13.93547048	     -1.63671253	     -6.67386838	    -65.28337885	      4.92305043	      1.75109761	      5.13533385	    -13.03082312	      1.97799815	      0.45911263
      0.76733333	      2.37991567	      3.24194448	      2.56214915	     -0.39622022	      1.09514180	      0.34182184	      2.27867230	      0.02090250	     -3.31495171	    -12.52906913	      7.94783370	     -3.22311280	      6.41675167	     14.29958302	     -1.56682150	     -6.95798209	    -64.72308613	      5.23261269	      2.02059931	      5.12777068	    -13.12231938	      1.79558477	      0.66940296
      0.77150000	      2.41029674	      3.35032239	      2.40357264	     -0.39109735	      1.09574349	      0.34239821	      1.78985866	     -0.06209812	     -3.24653770	    -12.18502326	      8.00680630	     -3.11283549	      6.41129660	     14.66284335	     -1.48474266	     -7.25974264	    -64.10626019	      5.52342165	      2.26904512	      5.12459513	    -13.17045701	      1.61041127	      0.82678875
      0.77566667	      2.45983380	      3.44217239	      2.24873581	     -0.38601458	      1.09631214	      0.34296163	      1.27939976	     -0.12766606	     -3.17153230	    -11.83238325	      8.07209838	     -3.00296604	      6.40549185	     15.00167359	     -1.42070326	     -7.55272727	    -63.45682074	      5.81944260	      2.54152300	      5.12224335	    -13.26128893	      1.43760576	      1.01500045
      0.77983333	      2.48605081	      3.52977895	      2.09366623	     -0.38092387	      1.09678714	      0.34350912	      0.80126605	     -0.19261905	     -3.10432485	    -11.49544446	      8.13069182	     -2.89590634	      6.40106344	     15.35475859	     -1.35695052	     -7.84488558	    -62.76661581	      6.10292643	      2.78929971	      5.12231551	    -13.31320652	      1.27639264	      1.16287935
